<?xml version="1.0" encoding="utf-8"?>
<!-- Generator: Adobe Illustrator 25.0.0, SVG Export Plug-In . SVG Version: 6.00 Build 0)  -->
<svg version="1.1" id="Layer_1" xmlns="http://www.w3.org/2000/svg" xmlns:xlink="http://www.w3.org/1999/xlink" x="0px" y="0px"
	 viewBox="0 0 142.3 142.3" style="enable-background:new 0 0 142.3 142.3;" xml:space="preserve">
<style type="text/css">
	.st0{fill:#EE2A7B;}
</style>
<path class="st0" d="M45.5,75.5h12v8.3c-2.9,2.5-6.7,3.9-10.6,3.8c-11.7,0-16.2-8-16.2-15.7c0-9.7,6.1-17.3,16.2-17.3
	c4.4,0,8.7,1.7,12,4.7l5.5-5.7c-4.6-4.6-10.9-7.2-17.5-7.2C30.3,46.4,22,58.6,22,71.9c0,12.4,7.2,24,24.9,24
	c7.2,0.2,14.1-2.9,18.7-8.5V67.6H45.5V75.5z M96.3,46.8c-13.6,0-24.4,9.9-24.4,24.8c0,12.4,7.7,24.2,24.2,24.2s24-12.2,24.1-24.3
	S112.4,47,96.3,46.8z M96.1,87.7c-11.1,0-15.2-8.3-15.4-16c-0.3-9.3,5.7-16.9,15.7-16.9c10.8,0.2,15.3,8.9,15.2,16.8
	S107.2,87.7,96.1,87.7z M112.2,0H30.1C13.5,0,0,13.5,0,30.1v82.2c0,16.6,13.5,30,30.1,30h82.2c16.6,0,30-13.5,30.1-30V30.1
	C142.2,13.5,128.8,0,112.2,0z M132.7,112.2c0,11.3-9.2,20.4-20.4,20.4H30.1c-11.3,0-20.4-9.2-20.4-20.4V30.1
	c0-11.3,9.2-20.4,20.4-20.4h82.2c11.3,0,20.4,9.2,20.5,20.4V112.2z"/>
</svg>
